<svg width="144" height="24" fill="none" xmlns="http://www.w3.org/2000/svg"><path d="M16.582 5.762c.532 1.083.797 2.29.797 3.617 0 1.329-.265 2.534-.797 3.617-.53 1.063-1.216 1.91-2.053 2.544-1.696 1.308-3.454 1.962-5.272 1.962H5.425v3.463c0 .47-.02.828-.061 1.073-.02.225-.112.49-.276.797-.286.552-1.083.828-2.39.828-1.431 0-2.269-.378-2.514-1.134C.06 22.18 0 21.65 0 20.935V3.923c0-.47.01-.817.03-1.042a2.82 2.82 0 01.307-.827c.286-.552 1.083-.828 2.391-.828h6.56c1.798 0 3.545.654 5.24 1.962.838.633 1.523 1.491 2.054 2.574zm-7.295 6.315c.613 0 1.216-.225 1.809-.675.592-.45.889-1.124.889-2.023s-.297-1.573-.89-2.023c-.592-.47-1.205-.705-1.838-.705H5.425v5.426h3.862zm20.563-2.82c.122-1.145.93-1.717 2.42-1.717.798 0 1.39.062 1.779.184.388.123.654.337.797.644.163.306.255.582.275.827.041.225.062.573.062 1.043v10.727c0 .47-.02.828-.062 1.073-.02.225-.102.49-.245.797-.286.531-.99.797-2.115.797-1.103 0-1.849-.133-2.237-.398-.368-.286-.583-.695-.644-1.226-.756 1.083-2.023 1.624-3.8 1.624-1.758 0-3.393-.807-4.905-2.421-1.512-1.615-2.268-3.484-2.268-5.61 0-2.145.756-4.015 2.268-5.609 1.533-1.614 3.208-2.421 5.027-2.421.695 0 1.328.122 1.9.368.572.245.97.48 1.196.705.224.204.408.408.551.613zm-5.58 6.375c0 .675.267 1.287.798 1.84a2.63 2.63 0 001.93.796c.757 0 1.38-.276 1.87-.827.511-.552.767-1.155.767-1.809 0-.674-.245-1.297-.736-1.87-.47-.572-1.114-.858-1.93-.858-.798 0-1.452.286-1.963.858-.49.573-.735 1.196-.735 1.87zm22.735-2.666l-1.992-.123v4.23c0 .552.081.95.245 1.195.184.245.51.368.98.368.491 0 .859.02 1.104.061.266.02.542.113.828.276.47.266.705.95.705 2.054 0 1.287-.286 2.074-.858 2.36a3.265 3.265 0 01-.828.276c-.225.02-.562.03-1.012.03-2.125 0-3.739-.48-4.843-1.44-1.103-.96-1.655-2.585-1.655-4.874v-4.536a8.07 8.07 0 01-1.256.092c-.45 0-.828-.174-1.134-.521-.287-.348-.43-.94-.43-1.778 0-.838.051-1.44.154-1.808.102-.389.245-.665.429-.828.327-.266.735-.398 1.226-.398l1.011.122V4.567c0-.47.01-.817.031-1.042.04-.225.143-.47.306-.736.266-.51 1.053-.766 2.36-.766 1.39 0 2.218.378 2.483 1.134.103.327.154.848.154 1.563v3.004c.899-.082 1.573-.122 2.023-.122.47 0 .817.02 1.042.06.245.021.52.113.827.277.532.265.797 1.052.797 2.36 0 1.287-.276 2.074-.827 2.36a3.27 3.27 0 01-.828.276c-.225.02-.572.03-1.042.03zm4.727 7.57c-.531-.654-.797-1.236-.797-1.747 0-.531.44-1.226 1.318-2.084.511-.49 1.053-.736 1.625-.736.572 0 1.369.511 2.39 1.533.286.347.695.684 1.227 1.011.53.307 1.021.46 1.47.46 1.901 0 2.851-.776 2.851-2.33 0-.47-.265-.858-.797-1.164-.51-.327-1.154-.562-1.93-.705a17.88 17.88 0 01-2.514-.674c-.9-.327-1.737-.705-2.514-1.134-.776-.43-1.43-1.104-1.961-2.023-.511-.94-.766-2.064-.766-3.372 0-1.798.664-3.362 1.992-4.69C54.675 1.533 56.503.858 58.812.858c1.227 0 2.34.164 3.342.49 1.021.307 1.726.624 2.114.95l.767.583c.633.593.95 1.093.95 1.502 0 .409-.245.97-.736 1.686-.694 1.022-1.41 1.533-2.145 1.533-.43 0-.96-.205-1.594-.613a4.514 4.514 0 01-.368-.307 3.732 3.732 0 00-.46-.398c-.429-.266-.98-.399-1.655-.399-.654 0-1.206.164-1.655.49-.43.307-.644.746-.644 1.318 0 .552.256 1.002.767 1.35.53.347 1.185.582 1.961.704.777.123 1.625.317 2.544.582a14.9 14.9 0 012.544.92c.777.368 1.42 1.011 1.931 1.931.532.9.797 2.013.797 3.341 0 1.328-.265 2.503-.797 3.525-.531 1.001-1.226 1.778-2.084 2.33C62.736 23.457 60.968 24 59.088 24c-.96 0-1.87-.112-2.728-.337-.858-.245-1.553-.542-2.084-.89-1.083-.653-1.839-1.286-2.268-1.9l-.276-.337zm26.314-7.57l-1.993-.123v4.23c0 .552.082.95.245 1.195.184.245.511.368.981.368.49 0 .859.02 1.104.061.265.02.541.113.827.276.47.266.705.95.705 2.054 0 1.287-.286 2.074-.858 2.36a3.265 3.265 0 01-.828.276c-.224.02-.561.03-1.011.03-2.125 0-3.74-.48-4.843-1.44-1.103-.96-1.655-2.585-1.655-4.874v-4.536a8.069 8.069 0 01-1.257.092c-.45 0-.828-.174-1.134-.521-.286-.348-.43-.94-.43-1.778 0-.838.052-1.44.154-1.808.102-.389.245-.665.43-.828.326-.266.735-.398 1.225-.398l1.012.122V4.567c0-.47.01-.817.03-1.042.041-.225.144-.47.307-.736.266-.51 1.052-.766 2.36-.766 1.39 0 2.217.378 2.483 1.134.102.327.153.848.153 1.563v3.004c.9-.082 1.574-.122 2.023-.122.47 0 .818.02 1.042.06.246.021.521.113.828.277.531.265.797 1.052.797 2.36 0 1.287-.276 2.074-.828 2.36a3.268 3.268 0 01-.827.276c-.225.02-.572.03-1.042.03zm11.562 10.666c-2.064 0-3.78-.776-5.15-2.33-1.348-1.573-2.023-3.483-2.023-5.731v-5.364c0-.49.01-.848.031-1.073.04-.225.133-.49.276-.797.286-.552 1.083-.827 2.39-.827 1.431 0 2.269.388 2.514 1.164.123.327.184.848.184 1.564v5.364c0 .837.235 1.491.705 1.961.49.47 1.134.705 1.931.705.817 0 1.471-.245 1.962-.735.51-.49.766-1.135.766-1.932v-5.425c0-.47.01-.817.03-1.042.041-.245.144-.521.307-.827.266-.532 1.052-.797 2.36-.797 1.288 0 2.074.275 2.36.827.143.307.225.583.246.828.04.225.061.572.061 1.042v10.85c0 .45-.02.797-.061 1.043-.02.224-.113.48-.276.766-.307.531-1.093.797-2.36.797-1.247 0-2.013-.245-2.3-.736-.204-.347-.306-.766-.306-1.256-.081.143-.265.347-.551.613-.286.265-.562.49-.828.674-.695.45-1.45.674-2.268.674zM111.844.828c.163-.307.439-.521.827-.644.388-.123.899-.184 1.533-.184.654 0 1.175.061 1.563.184.388.123.654.337.797.644.163.306.255.582.276.827.041.225.061.572.061 1.042v18.3c0 .47-.02.827-.061 1.072-.021.225-.113.48-.276.766-.307.552-1.175.828-2.605.828-1.41 0-2.197-.5-2.361-1.502-.858.98-2.053 1.471-3.586 1.471-1.839 0-3.514-.797-5.027-2.39-1.512-1.615-2.268-3.485-2.268-5.61 0-2.145.756-4.025 2.268-5.64 1.533-1.614 3.209-2.421 5.027-2.421 1.512 0 2.687.51 3.525 1.532V2.667c0-.47.01-.818.031-1.042a2.86 2.86 0 01.276-.797zm-4.966 16.643a2.581 2.581 0 001.931.828c.756 0 1.379-.276 1.87-.828.511-.552.766-1.154.766-1.808 0-.675-.245-1.298-.735-1.87-.47-.572-1.114-.858-1.932-.858-.817 0-1.471.286-1.961.858-.491.552-.736 1.165-.736 1.84 0 .674.266 1.287.797 1.838zm12.465-7.233c0-.47.01-.818.03-1.043a3.28 3.28 0 01.276-.827c.286-.531 1.083-.797 2.391-.797.981 0 1.676.174 2.084.521.348.286.532.725.552 1.318.02.204.031.5.031.889v10.728c0 .47-.021.827-.062 1.073-.02.224-.112.49-.276.797-.265.53-1.052.797-2.36.797-1.287 0-2.074-.276-2.36-.828a3.386 3.386 0 01-.276-.797 13.53 13.53 0 01-.03-1.073V10.238zm5.026-5.67c-.143.285-.408.49-.796.612-.389.123-.91.184-1.564.184-.633 0-1.144-.061-1.532-.184-.388-.123-.664-.337-.828-.644a3.385 3.385 0 01-.276-.797 14.23 14.23 0 01-.03-1.072c0-.47.01-.818.03-1.042a2.86 2.86 0 01.276-.797C119.935.276 120.732 0 122.04 0c1.287 0 2.064.276 2.329.828.164.306.256.582.276.827.041.225.062.572.062 1.042 0 .47-.021.828-.062 1.073-.02.225-.112.49-.276.797zm2.326 11.064c0-2.452.859-4.475 2.575-6.069 1.717-1.594 3.678-2.39 5.885-2.39s4.159.796 5.855 2.39c1.696 1.574 2.544 3.586 2.544 6.038 0 1.697-.44 3.209-1.318 4.537-.879 1.308-1.952 2.278-3.219 2.912a8.714 8.714 0 01-3.892.92c-1.349 0-2.657-.328-3.924-.982-1.267-.674-2.34-1.655-3.218-2.942-.858-1.308-1.288-2.78-1.288-4.414zm6.407 2.207c.653.49 1.318.736 1.992.736.674 0 1.349-.256 2.023-.767.674-.51 1.011-1.267 1.011-2.268s-.316-1.747-.95-2.237c-.633-.49-1.318-.736-2.053-.736-.736 0-1.421.255-2.054.766-.634.511-.95 1.267-.95 2.268 0 .981.327 1.727.981 2.238z" fill="#213243"/></svg>